<svg xmlns="http://www.w3.org/2000/svg" width="258" height="264" fill="none"><rect width="258" height="258" fill="url(#a)" rx="42"/><g filter="url(#b)"><path fill="#F9FBFC" d="M113.6 23.08 44.54 62.85a30 30 0 0 0-15.03 26v80.38a30 30 0 0 0 14.93 25.94l69.08 40.12a30 30 0 0 0 30.02.07l69.92-40.2a30 30 0 0 0 15.05-26.02v-80.2a30 30 0 0 0-15.14-26.07L143.43 23a30 30 0 0 0-29.82.07Z"/></g><path fill="#C2CBD6" d="M113.67 45.36 64 74.04a30 30 0 0 0-15 25.98v58.13a30 30 0 0 0 14.9 25.93L113.58 213a30 30 0 0 0 30.08.07l50.32-29.01a30 30 0 0 0 15.02-26v-57.95a30 30 0 0 0-15.12-26.05L143.56 45.3a30 30 0 0 0-29.89.06Z"/><path fill="#0D1920" d="M113.7 48.86 67 75.8a30 30 0 0 0-15 25.98v54.62a30 30 0 0 0 14.9 25.93l46.7 27.18a30 30 0 0 0 30.07.06l47.3-27.26a30 30 0 0 0 15.03-26v-54.44a30 30 0 0 0-15.12-26.05L143.57 48.8a30 30 0 0 0-29.88.07Z"/><path fill="url(#c)" d="M108.74 59.75 78.99 76.94A40 40 0 0 0 59 111.57v35.1a40 40 0 0 0 19.86 34.57l29.75 17.33a40 40 0 0 0 40.13.09l30.25-17.45A40 40 0 0 0 199 146.56v-34.87a40 40 0 0 0-20.14-34.72l-30.25-17.3a40 40 0 0 0-39.87.08Z"/><g filter="url(#d)"><circle cx="129" cy="129" r="34" fill="#1C313F"/></g><g filter="url(#e)"><path fill="#fff" d="M128.56 67a7.92 7.92 0 0 1 2.64 15.38v17.7c1.79.14 3.53.43 5.22.88 2.77-2.69 6.66-6.55 8.76-8.88a7.92 7.92 0 1 1 5.13 2.98l-7.72 8.31c3.96 2.11 7.38 5.11 9.99 8.74l3.97-1.7a35 35 0 0 0 5.33-2.85l6.38-4.16a7.92 7.92 0 1 1 3.72 3.39l-7.26 4.74a35.03 35.03 0 0 1-6.74 3.43l-3 1.14a28.8 28.8 0 0 1 2.86 9.82h17.78a7.92 7.92 0 1 1 0 5.28h-17.7c-.24 3.2-1 6.25-2.2 9.07 6.5 3.49 14.38 8.1 16.7 10.77a7.9 7.9 0 1 1-4.01 3.3 15.74 15.74 0 0 0-4.23-3.35 279.42 279.42 0 0 0-11.27-5.58 29.13 29.13 0 0 1-9.63 8.84l7.27 8.6-.07.07a7.92 7.92 0 1 1-4.87 2.48l-8.54-8.54c-1.88.54-3.85.9-5.87 1.06v17.7a7.92 7.92 0 1 1-5.28 0v-17.78a28.81 28.81 0 0 1-8.8-2.38 84.72 84.72 0 0 1-1.75 3.88c-.88 1.77-2.96 4.27-4.73 6.07a7.91 7.91 0 1 1-4.07-2.36c1.4-1.29 3.32-3.37 4.84-5.9a44.78 44.78 0 0 0 1.94-3.73 29.14 29.14 0 0 1-8.7-8.67l-11.02 5.27a10 10 0 0 0-3.42 2.69l-1.43 1.75a7.92 7.92 0 1 1-4.2-3.47l1.33-1.76a10 10 0 0 1 3.26-2.8l12.8-6.9a28.87 28.87 0 0 1-1.94-9.21h-17.4a7.92 7.92 0 1 1-.62-5.28h18.26c.42-3.08 1.32-6 2.63-8.7-3.45-1.3-8.01-3.02-10.84-4.05-2.63-.96-5-3.46-6.62-5.65a7.92 7.92 0 1 1 3.55-3.5c1.3 1.65 3.11 3.58 4.83 4.31 2.03.87 7.75 2.98 11.76 4.44a29.13 29.13 0 0 1 9.6-8.4 80.94 80.94 0 0 1-8.3-9.5 7.93 7.93 0 0 1-9.98-7.64 7.92 7.92 0 1 1 13.97 5.1 74.14 74.14 0 0 0 5.38 5.9c1.43 1.42 2.82 2.77 4.1 3.96 1.79-.56 3.65-.95 5.57-1.15V82.38A7.92 7.92 0 0 1 128.56 67Zm0 112.13a3.96 3.96 0 1 0 0 7.91 3.96 3.96 0 0 0 0-7.91Zm-23.75-12.31a3.96 3.96 0 1 0 0 7.91 3.96 3.96 0 0 0 0-7.91Zm46.62 0a3.96 3.96 0 1 0 0 7.91 3.96 3.96 0 0 0 0-7.91ZM81.95 154.5a3.96 3.96 0 1 0 0 7.92 3.96 3.96 0 0 0 0-7.92Zm93.22 0a3.96 3.96 0 1 0 0 7.92 3.96 3.96 0 0 0 0-7.92ZM74.92 124.6a3.96 3.96 0 1 0 0 7.92 3.96 3.96 0 0 0 0-7.92Zm108.17 0a3.96 3.96 0 1 0 0 7.92 3.96 3.96 0 0 0 0-7.92ZM81.95 95.58a3.96 3.96 0 1 0 0 7.92 3.96 3.96 0 0 0 0-7.92Zm93.22 0a3.96 3.96 0 1 0 0 7.92 3.96 3.96 0 0 0 0-7.92Zm-23.74-12.31a3.96 3.96 0 1 0 0 7.92 3.96 3.96 0 0 0 0-7.92Zm-46.62-.88a3.96 3.96 0 1 0 0 7.92 3.96 3.96 0 0 0 0-7.92Zm23.75-11.43a3.96 3.96 0 1 0 0 7.91 3.96 3.96 0 0 0 0-7.91Z"/></g><path stroke="#0D1920" stroke-linecap="round" stroke-linejoin="round" stroke-width="4" d="M123.5 125.5H134"/><path stroke="#0D1920" stroke-linecap="round" stroke-linejoin="round" stroke-width="3" d="M123.5 131H134M123.5 138H134"/><path stroke="#0D1920" stroke-linecap="round" stroke-linejoin="round" d="M123.5 135H134"/><path stroke="#0D1920" stroke-linecap="round" stroke-linejoin="round" stroke-width="4" d="M127.24 112c.13.78.32 1.63.56 2.43.23.75.54 1.55.96 2.23.4.64 1.11 1.5 2.25 1.78 1.3.32 2.4.31 3.44.24 1.07-.07 1.89-.18 3.05-.18 1.02 0 1.75.21 2.14.45.31.2.36.34.36.55 0 1 .25 7.4.38 13.6.06 3.15.09 6.3.04 8.8a54.97 54.97 0 0 1-.13 3.13c-.06.87-.14 1.2-.15 1.23a.49.49 0 0 1-.03.07c-.08.02-.3.07-.76 0-1.02-.14-2.26-.65-3.6-1.19a9.76 9.76 0 0 0-3.71-.41c-1.33.04-2.85.19-4.31.34-1.5.16-2.94.33-4.2.43-1.32.1-2.22.1-2.7.03a11.07 11.07 0 0 1-3.76-1.53c.18-2.88.43-8.71.43-16 0-6.7-.21-12.59-.39-16h10.13Z"/><defs><filter id="b" width="227" height="248.28" x="19.5" y="15.07" color-interpolation-filters="sRGB" filterUnits="userSpaceOnUse"><feFlood flood-opacity="0" result="BackgroundImageFix"/><feColorMatrix in="SourceAlpha" result="hardAlpha" values="0 0 0 0 0 0 0 0 0 0 0 0 0 0 0 0 0 0 127 0"/><feMorphology in="SourceAlpha" operator="dilate" radius="8" result="effect1_dropShadow_2379_333"/><feOffset dx="4" dy="10"/><feGaussianBlur stdDeviation="3"/><feComposite in2="hardAlpha" operator="out"/><feColorMatrix values="0 0 0 0 0 0 0 0 0 0 0 0 0 0 0 0 0 0 1 0"/><feBlend in2="BackgroundImageFix" result="effect1_dropShadow_2379_333"/><feBlend in="SourceGraphic" in2="effect1_dropShadow_2379_333" result="shape"/></filter><filter id="d" width="72" height="72" x="95" y="95" color-interpolation-filters="sRGB" filterUnits="userSpaceOnUse"><feFlood flood-opacity="0" result="BackgroundImageFix"/><feColorMatrix in="SourceAlpha" result="hardAlpha" values="0 0 0 0 0 0 0 0 0 0 0 0 0 0 0 0 0 0 127 0"/><feOffset dx="2" dy="2"/><feGaussianBlur stdDeviation="1"/><feComposite in2="hardAlpha" operator="out"/><feColorMatrix values="0 0 0 0 0 0 0 0 0 0 0 0 0 0 0 0 0 0 1 0"/><feBlend in2="BackgroundImageFix" result="effect1_dropShadow_2379_333"/><feBlend in="SourceGraphic" in2="effect1_dropShadow_2379_333" result="shape"/></filter><filter id="e" width="134" height="134" x="66" y="66" color-interpolation-filters="sRGB" filterUnits="userSpaceOnUse"><feFlood flood-opacity="0" result="BackgroundImageFix"/><feColorMatrix in="SourceAlpha" result="hardAlpha" values="0 0 0 0 0 0 0 0 0 0 0 0 0 0 0 0 0 0 127 0"/><feOffset dx="4" dy="4"/><feGaussianBlur stdDeviation="2.5"/><feComposite in2="hardAlpha" operator="out"/><feColorMatrix values="0 0 0 0 0 0 0 0 0 0 0 0 0 0 0 0 0 0 1 0"/><feBlend in2="BackgroundImageFix" result="effect1_dropShadow_2379_333"/><feBlend in="SourceGraphic" in2="effect1_dropShadow_2379_333" result="shape"/></filter><linearGradient id="a" x1="16" x2="254" y1="37" y2="213.5" gradientUnits="userSpaceOnUse"><stop stop-color="#343D4B"/><stop offset="1" stop-color="#0D1920"/></linearGradient><linearGradient id="c" x1="59" x2="199" y1="128.98" y2="128.98" gradientUnits="userSpaceOnUse"><stop stop-color="#1BC1F7"/><stop offset=".29" stop-color="#24C8FE"/><stop offset=".54" stop-color="#248CC8"/><stop offset=".77" stop-color="#254A62"/><stop offset="1" stop-color="#233445"/></linearGradient></defs></svg>